subject10_loaded_free_trial03_ground_reaction
version=1
nRows=67
nColumns=19
inDegrees=no
endheader
time	ground_force_r_vx	ground_force_r_vy	ground_force_r_vz	ground_force_r_px	ground_force_r_py	ground_force_r_pz	ground_torque_r_x	ground_torque_r_y	ground_torque_r_z	ground_force_l_vx	ground_force_l_vy	ground_force_l_vz	ground_force_l_px	ground_force_l_py	ground_force_l_pz	ground_torque_l_x	ground_torque_l_y	ground_torque_l_z
1.159500	-58.451480	878.589920	-23.273546	0.939319	0.000000	-0.149202	0.000000	2.157846	0.000000	0.000000	0.000000	0.000000	1.979254	0.000000	0.089139	0.000000	0.000000	0.000000
1.160000	-58.074712	877.224537	-23.204407	0.939530	0.000000	-0.149229	0.000000	2.153767	0.000000	0.000000	0.000000	0.000000	1.985617	0.000000	0.090600	0.000000	0.000000	0.000000
1.160500	-57.700390	875.861597	-23.136838	0.939743	0.000000	-0.149256	0.000000	2.149610	0.000000	0.000000	0.000000	0.000000	1.991930	0.000000	0.092052	0.000000	0.000000	0.000000
1.161000	-57.328511	874.501245	-23.070837	0.939957	0.000000	-0.149282	0.000000	2.145371	0.000000	0.000000	0.000000	0.000000	1.998193	0.000000	0.093494	0.000000	0.000000	0.000000
1.161500	-56.959072	873.143625	-23.006404	0.940172	0.000000	-0.149308	0.000000	2.141050	0.000000	0.000000	0.000000	0.000000	2.004405	0.000000	0.094927	0.000000	0.000000	0.000000
1.162000	-56.592068	871.788877	-22.943534	0.940388	0.000000	-0.149334	0.000000	2.136646	0.000000	0.000000	0.000000	0.000000	2.010568	0.000000	0.096350	0.000000	0.000000	0.000000
1.162500	-56.227493	870.437136	-22.882223	0.940605	0.000000	-0.149359	0.000000	2.132157	0.000000	0.000000	0.000000	0.000000	2.016680	0.000000	0.097763	0.000000	0.000000	0.000000
1.163000	-55.865342	869.088536	-22.822467	0.940824	0.000000	-0.149385	0.000000	2.127583	0.000000	0.000000	0.000000	0.000000	2.022743	0.000000	0.099166	0.000000	0.000000	0.000000
1.163500	-55.505611	867.743210	-22.764258	0.941043	0.000000	-0.149409	0.000000	2.122922	0.000000	0.000000	0.000000	0.000000	2.028757	0.000000	0.100560	0.000000	0.000000	0.000000
1.164000	-55.148294	866.401288	-22.707589	0.941264	0.000000	-0.149434	0.000000	2.118173	0.000000	0.000000	0.000000	0.000000	2.034720	0.000000	0.101944	0.000000	0.000000	0.000000
1.164500	-54.793388	865.062901	-22.652449	0.941486	0.000000	-0.149458	0.000000	2.113336	0.000000	0.000000	0.000000	0.000000	2.040635	0.000000	0.103318	0.000000	0.000000	0.000000
1.165000	-54.440889	863.728177	-22.598825	0.941709	0.000000	-0.149482	0.000000	2.108410	0.000000	0.000000	0.000000	0.000000	2.046500	0.000000	0.104683	0.000000	0.000000	0.000000
1.165500	-54.090791	862.397241	-22.546702	0.941933	0.000000	-0.149505	0.000000	2.103394	0.000000	0.000000	0.000000	0.000000	2.052317	0.000000	0.106037	0.000000	0.000000	0.000000
1.166000	-53.743092	861.070219	-22.496065	0.942159	0.000000	-0.149528	0.000000	2.098289	0.000000	0.000000	0.000000	0.000000	2.058084	0.000000	0.107383	0.000000	0.000000	0.000000
1.166500	-53.397786	859.747239	-22.446895	0.942385	0.000000	-0.149551	0.000000	2.093093	0.000000	0.000000	0.000000	0.000000	2.063803	0.000000	0.108718	0.000000	0.000000	0.000000
1.167000	-53.054868	858.428425	-22.399175	0.942613	0.000000	-0.149574	0.000000	2.087807	0.000000	0.000000	0.000000	0.000000	2.069472	0.000000	0.110044	0.000000	0.000000	0.000000
1.167500	-52.714332	857.113903	-22.352882	0.942842	0.000000	-0.149596	0.000000	2.082429	0.000000	0.000000	0.000000	0.000000	2.075093	0.000000	0.111361	0.000000	0.000000	0.000000
1.168000	-52.376173	855.803796	-22.307997	0.943072	0.000000	-0.149618	0.000000	2.076959	0.000000	0.000000	0.000000	0.000000	2.080666	0.000000	0.112667	0.000000	0.000000	0.000000
1.168500	-52.040386	854.498227	-22.264494	0.943303	0.000000	-0.149640	0.000000	2.071396	0.000000	0.000000	0.000000	0.000000	2.086190	0.000000	0.113964	0.000000	0.000000	0.000000
1.169000	-51.706964	853.197319	-22.222350	0.943535	0.000000	-0.149661	0.000000	2.065739	0.000000	0.000000	0.000000	0.000000	2.091666	0.000000	0.115251	0.000000	0.000000	0.000000
1.169500	-51.375902	851.901191	-22.181538	0.943768	0.000000	-0.149682	0.000000	2.059989	0.000000	0.000000	0.000000	0.000000	2.097094	0.000000	0.116529	0.000000	0.000000	0.000000
1.170000	-51.047195	850.609965	-22.142031	0.944003	0.000000	-0.149703	0.000000	2.054145	0.000000	0.000000	0.000000	0.000000	2.102474	0.000000	0.117797	0.000000	0.000000	0.000000
1.170500	-50.720837	849.323760	-22.103800	0.944238	0.000000	-0.149723	0.000000	2.048208	0.000000	0.000000	0.000000	0.000000	2.107806	0.000000	0.119056	0.000000	0.000000	0.000000
1.171000	-50.396823	848.042693	-22.066818	0.944475	0.000000	-0.149743	0.000000	2.042177	0.000000	0.000000	0.000000	0.000000	2.113091	0.000000	0.120305	0.000000	0.000000	0.000000
1.171500	-50.075146	846.766882	-22.031054	0.944712	0.000000	-0.149763	0.000000	2.036053	0.000000	0.000000	0.000000	0.000000	2.118328	0.000000	0.121544	0.000000	0.000000	0.000000
1.172000	-49.755800	845.496441	-21.996478	0.944951	0.000000	-0.149782	0.000000	2.029836	0.000000	0.000000	0.000000	0.000000	2.123517	0.000000	0.122773	0.000000	0.000000	0.000000
1.172500	-49.438776	844.231482	-21.963060	0.945191	0.000000	-0.149802	0.000000	2.023525	0.000000	0.000000	0.000000	0.000000	2.128659	0.000000	0.123993	0.000000	0.000000	0.000000
1.173000	-49.124067	842.972114	-21.930765	0.945432	0.000000	-0.149821	0.000000	2.017121	0.000000	0.000000	0.000000	0.000000	2.133753	0.000000	0.125204	0.000000	0.000000	0.000000
1.173500	-48.811663	841.718446	-21.899560	0.945674	0.000000	-0.149839	0.000000	2.010625	0.000000	0.000000	0.000000	0.000000	2.138801	0.000000	0.126404	0.000000	0.000000	0.000000
1.174000	-48.501558	840.470583	-21.869411	0.945916	0.000000	-0.149858	0.000000	2.004039	0.000000	0.000000	0.000000	0.000000	2.143801	0.000000	0.127595	0.000000	0.000000	0.000000
1.174500	-48.193739	839.228631	-21.840285	0.946160	0.000000	-0.149876	0.000000	1.997362	0.000000	0.000000	0.000000	0.000000	2.148755	0.000000	0.128777	0.000000	0.000000	0.000000
1.175000	-47.888198	837.992693	-21.812149	0.946405	0.000000	-0.149893	0.000000	1.990598	0.000000	0.000000	0.000000	0.000000	2.153662	0.000000	0.129949	0.000000	0.000000	0.000000
1.175500	-47.584921	836.762873	-21.784972	0.946652	0.000000	-0.149911	0.000000	1.983747	0.000000	0.000000	0.000000	0.000000	2.158522	0.000000	0.131111	0.000000	0.000000	0.000000
1.176000	-47.283897	835.539275	-21.758723	0.946899	0.000000	-0.149928	0.000000	1.976812	0.000000	0.000000	0.000000	0.000000	2.163336	0.000000	0.132264	0.000000	0.000000	0.000000
1.176500	-46.985111	834.321999	-21.733369	0.947147	0.000000	-0.149945	0.000000	1.969796	0.000000	0.000000	0.000000	0.000000	2.168103	0.000000	0.133407	0.000000	0.000000	0.000000
1.177000	-46.688551	833.111146	-21.708876	0.947396	0.000000	-0.149962	0.000000	1.962700	0.000000	0.000000	0.000000	0.000000	2.172824	0.000000	0.134541	0.000000	0.000000	0.000000
1.177500	-46.394203	831.906817	-21.685213	0.947646	0.000000	-0.149978	0.000000	1.955527	0.000000	0.000000	0.000000	0.000000	2.177499	0.000000	0.135665	0.000000	0.000000	0.000000
1.178000	-46.102052	830.709110	-21.662342	0.947897	0.000000	-0.149995	0.000000	1.948279	0.000000	0.000000	0.000000	0.000000	2.182128	0.000000	0.136780	0.000000	0.000000	0.000000
1.178500	-45.812083	829.518124	-21.640230	0.948149	0.000000	-0.150010	0.000000	1.940958	0.000000	0.000000	0.000000	0.000000	2.186711	0.000000	0.137885	0.000000	0.000000	0.000000
1.179000	-45.524281	828.333954	-21.618837	0.948401	0.000000	-0.150026	0.000000	1.933565	0.000000	0.000000	0.000000	0.000000	2.191248	0.000000	0.138980	0.000000	0.000000	0.000000
1.179500	-45.238630	827.156698	-21.598128	0.948655	0.000000	-0.150042	0.000000	1.926102	0.000000	0.000000	0.000000	0.000000	2.195740	0.000000	0.140066	0.000000	0.000000	0.000000
1.180000	-44.955114	825.986448	-21.578066	0.948910	0.000000	-0.150057	0.000000	1.918570	0.000000	0.000000	0.000000	0.000000	2.200186	0.000000	0.141142	0.000000	0.000000	0.000000
1.180500	-44.673715	824.823299	-21.558613	0.949166	0.000000	-0.150072	0.000000	1.910972	0.000000	0.000000	0.000000	0.000000	2.204587	0.000000	0.142209	0.000000	0.000000	0.000000
1.181000	-44.394415	823.667345	-21.539735	0.949422	0.000000	-0.150086	0.000000	1.903311	0.000000	0.000000	0.000000	0.000000	2.208942	0.000000	0.143266	0.000000	0.000000	0.000000
1.181500	-44.117196	822.518678	-21.521396	0.949680	0.000000	-0.150101	0.000000	1.895587	0.000000	0.000000	0.000000	0.000000	2.213252	0.000000	0.144314	0.000000	0.000000	0.000000
1.182000	-43.842039	821.377392	-21.503559	0.949938	0.000000	-0.150115	0.000000	1.887805	0.000000	0.000000	0.000000	0.000000	2.217517	0.000000	0.145352	0.000000	0.000000	0.000000
1.182500	-43.568923	820.243581	-21.486184	0.950197	0.000000	-0.150129	0.000000	1.879966	0.000000	0.000000	0.000000	0.000000	2.221738	0.000000	0.146381	0.000000	0.000000	0.000000
1.183000	-43.297830	819.117337	-21.469233	0.950457	0.000000	-0.150143	0.000000	1.872074	0.000000	0.000000	0.000000	0.000000	2.225913	0.000000	0.147400	0.000000	0.000000	0.000000
1.183500	-43.028737	817.998754	-21.452664	0.950718	0.000000	-0.150156	0.000000	1.864131	0.000000	0.000000	0.000000	0.000000	2.230044	0.000000	0.148409	0.000000	0.000000	0.000000
1.184000	-42.761622	816.887926	-21.436438	0.950979	0.000000	-0.150170	0.000000	1.856139	0.000000	0.000000	0.000000	0.000000	2.234130	0.000000	0.149409	0.000000	0.000000	0.000000
1.184500	-42.496459	815.784944	-21.420516	0.951242	0.000000	-0.150183	0.000000	1.848101	0.000000	0.000000	0.000000	0.000000	2.238172	0.000000	0.150400	0.000000	0.000000	0.000000
1.185000	-42.233226	814.689901	-21.404859	0.951505	0.000000	-0.150196	0.000000	1.840018	0.000000	0.000000	0.000000	0.000000	2.242169	0.000000	0.151381	0.000000	0.000000	0.000000
1.185500	-41.971898	813.602886	-21.389430	0.951769	0.000000	-0.150208	0.000000	1.831894	0.000000	0.000000	0.000000	0.000000	2.246123	0.000000	0.152353	0.000000	0.000000	0.000000
1.186000	-41.712453	812.523985	-21.374192	0.952034	0.000000	-0.150221	0.000000	1.823732	0.000000	0.000000	0.000000	0.000000	2.250032	0.000000	0.153315	0.000000	0.000000	0.000000
1.186500	-41.454864	811.453281	-21.359108	0.952299	0.000000	-0.150233	0.000000	1.815534	0.000000	0.000000	0.000000	0.000000	2.253897	0.000000	0.154267	0.000000	0.000000	0.000000
1.187000	-41.199106	810.390857	-21.344143	0.952565	0.000000	-0.150245	0.000000	1.807304	0.000000	0.000000	0.000000	0.000000	2.257719	0.000000	0.155210	0.000000	0.000000	0.000000
1.187500	-40.945155	809.336790	-21.329261	0.952832	0.000000	-0.150257	0.000000	1.799045	0.000000	0.000000	0.000000	0.000000	2.261497	0.000000	0.156144	0.000000	0.000000	0.000000
1.188000	-40.692983	808.291156	-21.314426	0.953100	0.000000	-0.150269	0.000000	1.790760	0.000000	0.000000	0.000000	0.000000	2.265231	0.000000	0.157068	0.000000	0.000000	0.000000
1.188500	-40.442567	807.254030	-21.299600	0.953368	0.000000	-0.150280	0.000000	1.782452	0.000000	0.000000	0.000000	0.000000	2.268922	0.000000	0.157983	0.000000	0.000000	0.000000
1.189000	-40.193881	806.225483	-21.284749	0.953637	0.000000	-0.150292	0.000000	1.774125	0.000000	0.000000	0.000000	0.000000	2.272569	0.000000	0.158888	0.000000	0.000000	0.000000
1.189500	-39.946900	805.205585	-21.269834	0.953907	0.000000	-0.150303	0.000000	1.765779	0.000000	0.000000	0.000000	0.000000	2.276174	0.000000	0.159784	0.000000	0.000000	0.000000
1.190000	-39.701597	804.194406	-21.254820	0.954177	0.000000	-0.150314	0.000000	1.757419	0.000000	0.000000	0.000000	0.000000	2.279735	0.000000	0.160670	0.000000	0.000000	0.000000
1.190500	-39.457945	803.192012	-21.239671	0.954448	0.000000	-0.150325	0.000000	1.749048	0.000000	0.000000	0.000000	0.000000	2.283253	0.000000	0.161547	0.000000	0.000000	0.000000
1.191000	-39.215917	802.198467	-21.224349	0.954720	0.000000	-0.150335	0.000000	1.740668	0.000000	0.000000	0.000000	0.000000	2.286729	0.000000	0.162414	0.000000	0.000000	0.000000
1.191500	-38.975485	801.213835	-21.208823	0.954992	0.000000	-0.150346	0.000000	1.732282	0.000000	0.000000	0.000000	0.000000	2.290162	0.000000	0.163272	0.000000	0.000000	0.000000
1.192000	-38.736621	800.238178	-21.193056	0.955264	0.000000	-0.150356	0.000000	1.723894	0.000000	0.000000	0.000000	0.000000	2.293552	0.000000	0.164121	0.000000	0.000000	0.000000
1.192500	-38.499296	799.271559	-21.177017	0.955538	0.000000	-0.150366	0.000000	1.715507	0.000000	0.000000	0.000000	0.000000	2.296900	0.000000	0.164960	0.000000	0.000000	0.000000
